Coordinates
version=1
nRows=9
nColumns=24
inDegrees=yes

Units are S.I. units (second, meters, Newtons, ...)
Angles are in degrees.

endheader
time	pelvis_tilt	pelvis_list	pelvis_rotation	pelvis_tx	pelvis_ty	pelvis_tz	hip_flexion_r	hip_adduction_r	hip_rotation_r	knee_angle_r	ankle_angle_r	subtalar_angle_r	mtp_angle_r	hip_flexion_l	hip_adduction_l	hip_rotation_l	knee_angle_l	ankle_angle_l	subtalar_angle_l	mtp_angle_l	lumbar_extension	lumbar_bending	lumbar_rotation
      1.18000000	     18.18673041	      1.45766971	      0.73522027	     -0.57469345	      0.92487091	      0.26320006	      9.11883733	     -0.70669715	     -2.78216729	    -11.10027733	     14.37623534	      2.02797732	     44.26498758	    -33.56384114	      1.76966405	     -5.13735026	    -13.63341644	     31.15640662	     12.67477320	     17.88051801	    -34.97906853	      1.72752517	     -1.11256617
      1.18500000	     18.29678456	      1.37131915	      0.86960244	     -0.56728090	      0.92407959	      0.26379891	      9.09555283	     -0.55826173	     -2.77531648	    -11.90896408	     14.38313440	      1.75909678	     44.14811062	    -33.88590454	      1.50002264	     -5.17983507	    -14.21583191	     31.17677693	     12.94164921	     18.16096290	    -35.00759201	      1.91825791	     -1.30755960
      1.19000000	     18.47366076	      1.25557310	      0.93171626	     -0.55969634	      0.92330646	      0.26443644	      8.98438076	     -0.35616878	     -2.63137347	    -12.77673182	     14.46090363	      1.50559164	     43.63944911	    -34.29971980	      1.24895557	     -5.31049802	    -14.76828758	     30.93237312	     13.05429262	     20.17100825	    -35.07619864	      2.09784195	     -1.30500731
      1.19500000	     18.52914913	      1.19717547	      1.08457779	     -0.55212362	      0.92241010	      0.26494157	      9.06366475	     -0.23969635	     -2.80769093	    -13.86868503	     14.06125541	      1.41801591	     43.70811328	    -34.51313474	      1.00024789	     -5.26395749	    -15.46144918	     30.93973750	     13.20039452	     20.39527005	    -35.03122249	      2.27816137	     -1.45687281
      1.20000000	     18.58853532	      1.07520968	      1.12190680	     -0.54461835	      0.92166238	      0.26553499	      9.16263795	     -0.01684103	     -2.89592964	    -14.96052655	     12.36592127	      0.57375502	     46.41396487	    -34.71699126	      0.76734146	     -5.28553147	    -16.16270512	     30.64737583	     13.18508771	     22.59375079	    -34.98826596	      2.44856575	     -1.36291919
      1.20500000	     18.53472107	      0.96185601	      1.23584894	     -0.53726748	      0.92089393	      0.26602985	      9.44576426	      0.17655146	     -3.11060687	    -16.17693260	     10.20438144	     -0.58577120	     46.29353240	    -34.73330161	      0.49952095	     -5.15515964	    -16.94743752	     30.48412780	     13.26563066	     22.98126375	    -34.83891933	      2.66024744	     -1.38425369
      1.21000000	     18.37277200	      0.73341477	      1.16530191	     -0.53006724	      0.92011127	      0.26674917	      9.94887209	      0.49335238	     -3.02552848	    -17.46481291	      8.42479100	     -1.74791595	     45.75512509	    -34.57769929	      0.24337127	     -5.18383509	    -17.83904178	     30.25508586	     13.20783226	     24.10680463	    -34.60516925	      2.89551454	     -1.10789020
      1.21500000	     18.17735517	      0.61713618	      1.20279684	     -0.52288580	      0.91946406	      0.26719511	     10.51229659	      0.62043931	     -3.05669721	    -18.81985722	      8.02491548	     -2.01328474	     44.16490100	    -34.35921563	      0.07813521	     -4.78956299	    -18.72694008	     29.76899862	     12.74259519	     26.73346798	    -34.34082793	      3.09627213	     -1.02614300
      1.22000000	     18.02959678	      0.42267598	      1.22356140	     -0.51565549	      0.91897685	      0.26770224	     10.98937241	      0.81787885	     -3.12552991	    -20.11832193	      8.29046081	     -1.86675800	     44.35904166	    -34.13766217	     -0.16553762	     -4.53182068	    -19.74693089	     29.44820417	     12.47342698	     27.14470521	    -34.12922554	      3.35397701	     -0.92064562
